<?xml version="1.0" encoding="UTF-8"?>
<svg xmlns="http://www.w3.org/2000/svg" xmlns:xlink="http://www.w3.org/1999/xlink" width="64px" height="64px" viewBox="0 0 64 64" version="1.1">
<g id="surface1">
<path style=" stroke:none;fill-rule:nonzero;fill:rgb(29.019608%,38.039216%,86.666667%);fill-opacity:1;" d="M 42.777344 7.703125 L 45.351562 7.703125 L 45.351562 10.28125 L 42.777344 10.28125 Z M 42.777344 7.703125 "/>
<path style=" stroke:none;fill-rule:nonzero;fill:rgb(29.019608%,38.039216%,86.666667%);fill-opacity:1;" d="M 46.808594 7.703125 L 49.386719 7.703125 L 49.386719 10.28125 L 46.808594 10.28125 Z M 46.808594 7.703125 "/>
<path style=" stroke:none;fill-rule:nonzero;fill:rgb(29.019608%,38.039216%,86.666667%);fill-opacity:1;" d="M 50.84375 7.703125 L 53.421875 7.703125 L 53.421875 10.28125 L 50.84375 10.28125 Z M 50.84375 7.703125 "/>
<path style=" stroke:none;fill-rule:nonzero;fill:rgb(29.019608%,38.039216%,86.666667%);fill-opacity:1;" d="M 17.171875 20.570312 L 41.734375 20.570312 L 41.734375 24.488281 L 17.171875 24.488281 Z M 17.171875 20.570312 "/>
<path style=" stroke:none;fill-rule:nonzero;fill:rgb(29.019608%,38.039216%,86.666667%);fill-opacity:1;" d="M 58.90625 36.636719 L 58.90625 1.476562 L 0 1.476562 L 0 51.90625 L 35.101562 51.90625 C 35.113281 51.941406 35.121094 51.972656 35.132812 52.007812 C 36.019531 54.984375 37.882812 57.664062 40.371094 59.546875 C 42.949219 61.496094 46.019531 62.523438 49.257812 62.523438 C 57.386719 62.523438 64 55.910156 64 47.78125 C 64 43.449219 62.15625 39.441406 58.90625 36.636719 Z M 41.175781 5.394531 L 54.988281 5.394531 L 54.988281 12.453125 L 41.175781 12.453125 Z M 3.917969 5.394531 L 37.257812 5.394531 L 37.257812 12.453125 L 3.917969 12.453125 Z M 35.191406 43.355469 C 35.183594 43.382812 35.175781 43.410156 35.167969 43.4375 C 35.125 43.574219 35.085938 43.710938 35.046875 43.847656 C 35.035156 43.890625 35.023438 43.933594 35.011719 43.972656 C 34.976562 44.105469 34.945312 44.234375 34.914062 44.363281 C 34.90625 44.40625 34.894531 44.449219 34.882812 44.488281 C 34.808594 44.824219 34.742188 45.164062 34.691406 45.503906 C 34.679688 45.5625 34.675781 45.621094 34.664062 45.679688 C 34.648438 45.789062 34.632812 45.902344 34.621094 46.015625 C 34.613281 46.082031 34.605469 46.148438 34.597656 46.21875 C 34.585938 46.324219 34.578125 46.433594 34.570312 46.539062 C 34.5625 46.605469 34.558594 46.671875 34.554688 46.738281 C 34.542969 46.855469 34.539062 46.972656 34.53125 47.089844 C 34.53125 47.148438 34.527344 47.203125 34.523438 47.261719 C 34.519531 47.433594 34.515625 47.609375 34.515625 47.78125 C 34.515625 47.851562 34.515625 47.917969 34.515625 47.988281 L 3.917969 47.988281 L 3.917969 16.371094 L 54.988281 16.371094 L 54.988281 34.191406 C 54.839844 34.128906 54.691406 34.070312 54.542969 34.011719 C 54.507812 34 54.472656 33.988281 54.4375 33.976562 C 54.277344 33.914062 54.113281 33.855469 53.945312 33.796875 C 53.933594 33.792969 53.921875 33.792969 53.910156 33.789062 C 53.753906 33.734375 53.59375 33.683594 53.433594 33.636719 C 53.402344 33.628906 53.371094 33.621094 53.339844 33.609375 C 53.171875 33.5625 53.007812 33.519531 52.839844 33.476562 C 52.808594 33.46875 52.777344 33.460938 52.746094 33.453125 C 52.582031 33.414062 52.421875 33.378906 52.257812 33.34375 C 52.246094 33.339844 52.230469 33.339844 52.21875 33.335938 C 52.046875 33.300781 51.875 33.269531 51.703125 33.242188 C 51.664062 33.234375 51.628906 33.230469 51.589844 33.222656 C 51.417969 33.195312 51.246094 33.171875 51.074219 33.152344 C 51.050781 33.148438 51.027344 33.144531 51.003906 33.144531 C 50.859375 33.125 50.710938 33.109375 50.5625 33.097656 L 50.5625 28.566406 L 8.488281 28.566406 L 8.488281 38.980469 L 37.429688 38.980469 C 36.441406 40.300781 35.6875 41.777344 35.191406 43.355469 Z M 46.644531 32.484375 L 46.644531 33.273438 C 46.40625 33.3125 46.171875 33.363281 45.9375 33.417969 C 45.933594 33.417969 45.929688 33.417969 45.925781 33.417969 C 45.816406 33.445312 45.703125 33.472656 45.59375 33.5 C 45.585938 33.503906 45.574219 33.503906 45.566406 33.507812 C 45.460938 33.535156 45.359375 33.5625 45.253906 33.59375 C 45.238281 33.59375 45.226562 33.597656 45.214844 33.601562 C 45.140625 33.625 45.070312 33.644531 45 33.664062 C 44.980469 33.671875 44.960938 33.675781 44.941406 33.683594 C 44.933594 33.6875 44.925781 33.6875 44.917969 33.691406 C 44.898438 33.695312 44.878906 33.703125 44.863281 33.707031 C 44.769531 33.734375 44.679688 33.765625 44.585938 33.796875 C 44.5625 33.804688 44.539062 33.8125 44.515625 33.820312 C 44.484375 33.832031 44.457031 33.839844 44.425781 33.851562 C 44.402344 33.859375 44.378906 33.867188 44.355469 33.875 C 44.324219 33.886719 44.289062 33.898438 44.257812 33.910156 C 44.230469 33.921875 44.203125 33.929688 44.175781 33.941406 C 44.078125 33.976562 43.984375 34.011719 43.890625 34.046875 C 43.875 34.054688 43.855469 34.0625 43.839844 34.070312 C 43.695312 34.125 43.546875 34.1875 43.40625 34.25 C 43.359375 34.269531 43.3125 34.289062 43.265625 34.3125 C 43.160156 34.355469 43.058594 34.40625 42.957031 34.453125 C 42.851562 34.503906 42.742188 34.554688 42.636719 34.609375 C 42.59375 34.632812 42.554688 34.652344 42.511719 34.671875 C 42.273438 34.796875 42.035156 34.925781 41.804688 35.058594 L 12.40625 35.058594 L 12.40625 32.484375 Z M 52.390625 58.140625 C 51.398438 58.441406 50.347656 58.605469 49.257812 58.605469 C 48.160156 58.605469 47.089844 58.433594 46.074219 58.117188 L 46.074219 53.949219 L 52.390625 53.949219 Z M 46.347656 50.03125 L 48.164062 47.417969 L 50.300781 47.417969 L 52.117188 50.03125 Z M 56.308594 55.984375 L 56.308594 49.195312 L 49.234375 39.015625 L 42.15625 49.195312 L 42.15625 55.929688 C 40.640625 54.617188 39.480469 52.882812 38.886719 50.886719 C 38.765625 50.480469 38.664062 50.054688 38.589844 49.617188 C 38.488281 49.007812 38.433594 48.390625 38.433594 47.78125 C 38.433594 47.65625 38.4375 47.527344 38.441406 47.398438 C 38.441406 47.351562 38.445312 47.304688 38.449219 47.257812 C 38.449219 47.179688 38.457031 47.101562 38.460938 47.023438 C 38.464844 46.964844 38.46875 46.902344 38.476562 46.84375 C 38.480469 46.78125 38.484375 46.722656 38.492188 46.664062 C 38.5 46.589844 38.507812 46.519531 38.515625 46.445312 C 38.519531 46.410156 38.527344 46.371094 38.53125 46.332031 C 38.949219 43.203125 40.710938 40.40625 43.417969 38.667969 C 43.851562 38.390625 44.304688 38.144531 44.765625 37.933594 C 44.785156 37.921875 44.804688 37.914062 44.820312 37.90625 C 44.972656 37.839844 45.125 37.773438 45.28125 37.710938 C 45.425781 37.652344 45.574219 37.601562 45.726562 37.546875 C 45.78125 37.527344 45.835938 37.511719 45.890625 37.492188 C 45.984375 37.464844 46.078125 37.433594 46.171875 37.40625 C 46.242188 37.382812 46.3125 37.367188 46.382812 37.347656 C 46.464844 37.324219 46.542969 37.304688 46.621094 37.28125 C 46.699219 37.261719 46.78125 37.246094 46.859375 37.226562 C 46.929688 37.210938 47.003906 37.195312 47.074219 37.179688 C 47.160156 37.164062 47.242188 37.148438 47.328125 37.132812 C 47.394531 37.121094 47.460938 37.109375 47.53125 37.097656 C 47.617188 37.085938 47.707031 37.070312 47.796875 37.058594 C 47.859375 37.050781 47.917969 37.042969 47.980469 37.035156 C 48.1875 37.011719 48.394531 36.992188 48.605469 36.980469 C 48.636719 36.976562 48.671875 36.976562 48.707031 36.972656 C 48.746094 36.972656 48.78125 36.96875 48.820312 36.96875 C 48.964844 36.964844 49.113281 36.960938 49.257812 36.960938 C 51.628906 36.960938 53.878906 37.710938 55.765625 39.136719 C 58.507812 41.203125 60.082031 44.355469 60.082031 47.78125 C 60.082031 51.058594 58.617188 53.996094 56.308594 55.984375 Z M 56.308594 55.984375 "/>
</g>
</svg>
