<?xml version="1.0" encoding="UTF-8"?>
<svg xmlns="http://www.w3.org/2000/svg" xmlns:xlink="http://www.w3.org/1999/xlink" width="20px" height="20px" viewBox="0 0 20 20" version="1.1">
<g id="surface1">
<path style=" stroke:none;fill-rule:nonzero;fill:rgb(29.019608%,38.039216%,86.666667%);fill-opacity:1;" d="M 10 0.242188 C 4.476562 0.242188 0 4.71875 0 10.242188 C 0 14.664062 2.863281 18.410156 6.835938 19.730469 C 7.335938 19.824219 7.519531 19.515625 7.519531 19.25 C 7.519531 19.011719 7.511719 18.382812 7.507812 17.550781 C 4.726562 18.152344 4.140625 16.207031 4.140625 16.207031 C 3.683594 15.054688 3.027344 14.746094 3.027344 14.746094 C 2.121094 14.125 3.097656 14.136719 3.097656 14.136719 C 4.101562 14.207031 4.628906 15.167969 4.628906 15.167969 C 5.519531 16.699219 6.96875 16.257812 7.542969 16 C 7.632812 15.351562 7.890625 14.914062 8.175781 14.664062 C 5.953125 14.414062 3.621094 13.550781 3.621094 9.71875 C 3.621094 8.628906 4.007812 7.738281 4.648438 7.039062 C 4.535156 6.785156 4.199219 5.769531 4.734375 4.390625 C 4.734375 4.390625 5.574219 4.121094 7.488281 5.417969 C 8.285156 5.191406 9.136719 5.082031 9.988281 5.078125 C 10.835938 5.082031 11.6875 5.191406 12.488281 5.417969 C 14.386719 4.121094 15.226562 4.390625 15.226562 4.390625 C 15.761719 5.769531 15.421875 6.785156 15.324219 7.039062 C 15.960938 7.738281 16.347656 8.628906 16.347656 9.71875 C 16.347656 13.5625 14.011719 14.40625 11.789062 14.65625 C 12.136719 14.953125 12.460938 15.566406 12.460938 16.503906 C 12.460938 17.84375 12.449219 18.917969 12.449219 19.242188 C 12.449219 19.503906 12.625 19.816406 13.136719 19.71875 C 17.136719 18.40625 20 14.65625 20 10.242188 C 20 4.71875 15.523438 0.242188 10 0.242188 "/>
</g>
</svg>
