<?xml version="1.0" encoding="UTF-8"?>
<svg xmlns="http://www.w3.org/2000/svg" xmlns:xlink="http://www.w3.org/1999/xlink" width="271px" height="75px" viewBox="0 0 267 75" version="1.1">
<g id="surface1">
<path style=" stroke:none;fill-rule:nonzero;fill:rgb(0%,0%,60%);fill-opacity:1;" d="M 143.480469 33.851562 C 144.53125 33.847656 145.578125 33.90625 146.621094 34.019531 C 144.148438 32.464844 142.648438 29.742188 142.65625 26.8125 L 142.65625 2.613281 C 142.65625 1.601562 142.65625 0.746094 141.589844 0.746094 L 135.015625 0.746094 C 134.5625 0.777344 134.140625 0.992188 133.851562 1.347656 C 133.5625 1.699219 133.433594 2.160156 133.492188 2.613281 L 133.492188 27.273438 C 133.519531 29.941406 134.179688 32.5625 135.414062 34.921875 C 138.042969 34.199219 140.753906 33.835938 143.480469 33.851562 Z M 205.179688 33.851562 L 205.179688 8.394531 L 210.777344 8.394531 C 214.207031 8.371094 217.496094 9.761719 219.878906 12.238281 C 222.257812 14.71875 223.523438 18.066406 223.371094 21.503906 C 223.519531 24.882812 222.277344 28.171875 219.933594 30.605469 C 217.59375 33.039062 214.359375 34.398438 210.988281 34.371094 C 215.335938 35.414062 219.492188 37.125 223.3125 39.449219 C 229.472656 35.738281 233.148438 28.972656 232.917969 21.765625 C 232.882812 16.121094 230.597656 10.722656 226.574219 6.773438 C 222.550781 2.828125 217.121094 0.65625 211.492188 0.746094 L 199.019531 0.746094 C 198.058594 0.746094 195.96875 1.632812 195.96875 2.613281 L 195.96875 34.738281 C 198.8125 34.113281 201.71875 33.828125 204.628906 33.882812 C 204.996094 33.851562 203.65625 33.851562 205.179688 33.851562 Z M 168.582031 27.273438 L 168.582031 2.613281 C 168.582031 1.632812 168.582031 0.746094 167.605469 0.746094 L 161.03125 0.746094 C 160.582031 0.785156 160.164062 1.003906 159.878906 1.355469 C 159.589844 1.707031 159.457031 2.160156 159.507812 2.613281 L 159.507812 26.921875 C 159.660156 31.011719 156.691406 34.550781 152.644531 35.089844 C 156.761719 36.375 160.085938 38.441406 163.730469 39.984375 C 167.222656 36.910156 168.582031 32.320312 168.582031 27.273438 Z M 177.730469 41.882812 C 182.304688 41.5 185.355469 40.351562 186.878906 39.097656 L 186.878906 2.996094 C 186.878906 1.984375 186.742188 0.746094 185.738281 0.746094 L 178.660156 0.746094 C 177.65625 0.746094 177.730469 1.984375 177.730469 2.996094 Z M 64.886719 39.96875 L 64.886719 34.875 C 64.914062 33.839844 64.132812 32.960938 63.101562 32.871094 L 48.113281 32.871094 L 48.113281 2.613281 C 48.105469 1.621094 47.332031 0.800781 46.34375 0.746094 L 40.898438 0.746094 C 39.863281 0.761719 39.019531 1.574219 38.960938 2.613281 L 38.960938 37.09375 C 43.488281 40.128906 48.769531 41.839844 54.210938 42.035156 C 57.875 42.105469 61.511719 41.402344 64.886719 39.96875 Z M 78.609375 2.996094 C 78.394531 1.808594 77.4375 0.898438 76.246094 0.746094 L 71.671875 0.746094 C 70.511719 0.910156 69.609375 1.832031 69.460938 2.996094 L 69.460938 37.09375 C 72.324219 35.625 75.417969 34.664062 78.609375 34.265625 Z M 250.285156 67.964844 C 241.375 73.171875 230.363281 73.171875 221.449219 67.964844 C 211.71875 62.320312 199.722656 62.320312 189.992188 67.964844 C 181.078125 73.171875 170.066406 73.171875 161.15625 67.964844 C 151.425781 62.316406 139.425781 62.316406 129.695312 67.964844 C 125.371094 70.640625 120.363281 71.996094 115.285156 71.867188 C 110.207031 71.992188 105.199219 70.636719 100.875 67.964844 C 96.144531 65.074219 90.6875 63.605469 85.152344 63.730469 C 79.613281 63.601562 74.15625 65.070312 69.429688 67.964844 C 65.105469 70.640625 60.097656 71.996094 55.019531 71.867188 C 49.941406 71.996094 44.933594 70.640625 40.609375 67.964844 C 35.882812 65.070312 30.425781 63.601562 24.886719 63.730469 C 19.34375 63.597656 13.882812 65.066406 9.148438 67.964844 C 6.328125 69.660156 3.230469 70.835938 0 71.4375 L 0 74.269531 C 3.699219 73.65625 7.246094 72.351562 10.460938 70.414062 C 14.785156 67.742188 19.792969 66.386719 24.871094 66.511719 C 29.949219 66.386719 34.957031 67.742188 39.28125 70.414062 C 44.007812 73.308594 49.46875 74.78125 55.003906 74.652344 C 60.546875 74.785156 66.011719 73.3125 70.742188 70.414062 C 75.066406 67.742188 80.074219 66.386719 85.152344 66.511719 C 90.230469 66.386719 95.238281 67.742188 99.5625 70.414062 C 104.292969 73.304688 109.746094 74.777344 115.285156 74.652344 C 120.820312 74.78125 126.28125 73.308594 131.007812 70.414062 C 139.917969 65.207031 150.929688 65.207031 159.84375 70.414062 C 169.574219 76.0625 181.570312 76.0625 191.300781 70.414062 C 200.214844 65.207031 211.226562 65.207031 220.140625 70.414062 C 229.871094 76.0625 241.867188 76.0625 251.597656 70.414062 C 255.921875 67.742188 260.929688 66.386719 266.007812 66.511719 L 267 66.511719 L 267 63.773438 L 266.007812 63.773438 C 260.476562 63.636719 255.019531 65.089844 250.285156 67.964844 Z M 250.285156 67.964844 "/>
<path style=" stroke:none;fill-rule:nonzero;fill:rgb(0%,0%,60%);fill-opacity:1;" d="M 266.007812 41.5 C 260.464844 41.386719 255.007812 42.878906 250.285156 45.800781 C 241.378906 51.015625 230.359375 51.015625 221.449219 45.800781 C 211.71875 40.15625 199.722656 40.15625 189.992188 45.800781 C 181.078125 51.003906 170.066406 51.003906 161.15625 45.800781 C 151.425781 40.148438 139.425781 40.148438 129.695312 45.800781 C 128.660156 46.351562 127.636719 46.902344 126.570312 47.328125 L 120.46875 38.6875 C 125.398438 34.628906 128.28125 28.589844 128.339844 22.195312 C 128.28125 12.851562 122.347656 4.566406 113.542969 1.527344 C 104.738281 -1.511719 94.980469 1.359375 89.207031 8.6875 C 83.433594 16.015625 82.902344 26.203125 87.882812 34.097656 C 98.191406 35.519531 99.988281 41.53125 112.28125 41.898438 L 116.351562 49.546875 L 115.347656 49.546875 C 110.265625 49.671875 105.261719 48.320312 100.933594 45.644531 C 96.207031 42.753906 90.75 41.285156 85.214844 41.410156 C 79.675781 41.28125 74.21875 42.75 69.492188 45.644531 C 65.164062 48.320312 60.160156 49.675781 55.082031 49.546875 C 50 49.675781 44.996094 48.320312 40.667969 45.644531 C 35.941406 42.75 30.484375 41.28125 24.949219 41.410156 C 19.367188 41.316406 13.878906 42.84375 9.148438 45.816406 C 6.332031 47.515625 3.230469 48.695312 0 49.300781 L 0 52.132812 C 3.699219 51.515625 7.25 50.203125 10.460938 48.261719 C 14.785156 45.589844 19.792969 44.234375 24.871094 44.359375 C 29.949219 44.234375 34.957031 45.589844 39.28125 48.261719 C 44.007812 51.15625 49.46875 52.628906 55.003906 52.5 C 60.542969 52.628906 66 51.15625 70.726562 48.261719 C 75.050781 45.589844 80.058594 44.234375 85.136719 44.359375 C 90.214844 44.234375 95.222656 45.589844 99.546875 48.261719 C 104.28125 51.15625 109.742188 52.625 115.285156 52.5 C 120.820312 52.628906 126.28125 51.15625 131.007812 48.261719 C 139.917969 43.054688 150.929688 43.054688 159.84375 48.261719 C 169.574219 53.910156 181.570312 53.910156 191.300781 48.261719 C 200.214844 43.054688 211.226562 43.054688 220.140625 48.261719 C 229.871094 53.910156 241.867188 53.910156 251.597656 48.261719 C 255.921875 45.589844 260.929688 44.234375 266.007812 44.359375 L 267 44.359375 L 267 41.5 Z M 106.378906 35.167969 C 99.429688 34.925781 93.921875 29.207031 93.921875 22.230469 C 93.921875 15.257812 99.429688 9.539062 106.378906 9.296875 C 113.472656 9.414062 119.183594 15.171875 119.265625 22.285156 C 119.238281 29.40625 113.476562 35.167969 106.378906 35.167969 Z M 106.378906 35.167969 "/>
<path style=" stroke:none;fill-rule:nonzero;fill:rgb(0%,0%,60%);fill-opacity:1;" d="M 250.285156 56.890625 C 241.375 62.097656 230.363281 62.097656 221.449219 56.890625 C 211.71875 51.242188 199.722656 51.242188 189.992188 56.890625 C 181.078125 62.097656 170.066406 62.097656 161.15625 56.890625 C 151.425781 51.238281 139.425781 51.238281 129.695312 56.890625 C 125.371094 59.5625 120.363281 60.917969 115.285156 60.792969 C 110.207031 60.917969 105.199219 59.5625 100.875 56.890625 C 96.144531 54 90.6875 52.527344 85.152344 52.652344 C 79.613281 52.523438 74.15625 53.996094 69.429688 56.890625 C 65.105469 59.5625 60.097656 60.917969 55.019531 60.792969 C 49.941406 60.917969 44.933594 59.5625 40.609375 56.890625 C 35.882812 53.996094 30.425781 52.523438 24.886719 52.652344 C 19.34375 52.519531 13.882812 53.992188 9.148438 56.890625 C 6.332031 58.589844 3.230469 59.769531 0 60.378906 L 0 63.207031 C 3.699219 62.59375 7.25 61.28125 10.460938 59.339844 C 14.785156 56.664062 19.792969 55.308594 24.871094 55.4375 C 29.949219 55.308594 34.957031 56.664062 39.28125 59.339844 C 44.007812 62.234375 49.46875 63.703125 55.003906 63.574219 C 60.542969 63.703125 66 62.234375 70.726562 59.339844 C 75.050781 56.664062 80.058594 55.308594 85.136719 55.4375 C 90.214844 55.308594 95.222656 56.664062 99.546875 59.339844 C 104.28125 62.230469 109.742188 63.703125 115.285156 63.574219 C 120.820312 63.703125 126.28125 62.234375 131.007812 59.339844 C 139.917969 54.132812 150.929688 54.132812 159.84375 59.339844 C 169.574219 64.984375 181.570312 64.984375 191.300781 59.339844 C 200.214844 54.132812 211.226562 54.132812 220.140625 59.339844 C 229.871094 64.984375 241.867188 64.984375 251.597656 59.339844 C 255.921875 56.664062 260.929688 55.308594 266.007812 55.4375 L 267 55.4375 L 267 52.699219 L 266.007812 52.699219 C 260.476562 52.5625 255.019531 54.015625 250.285156 56.890625 Z M 250.285156 56.890625 "/>
</g>
</svg>
