<?xml version="1.0" encoding="UTF-8"?>
<svg xmlns="http://www.w3.org/2000/svg" xmlns:xlink="http://www.w3.org/1999/xlink" width="16px" height="16px" viewBox="0 0 16 16" version="1.1">
<g id="surface1">
<path style=" stroke:none;fill-rule:nonzero;fill:rgb(29.019608%,38.039216%,86.666667%);fill-opacity:1;" d="M 14.769531 2 L 1.230469 2 C 0.554688 2 0 2.554688 0 3.234375 L 0 12.765625 C 0 13.445312 0.554688 14 1.230469 14 L 14.769531 14 C 15.445312 14 16 13.445312 16 12.765625 L 16 3.234375 C 16 2.554688 15.445312 2 14.769531 2 Z M 14.589844 2.914062 L 8.085938 8.476562 L 1.578125 2.914062 Z M 15.089844 12.765625 C 15.089844 12.941406 14.945312 13.085938 14.769531 13.085938 L 1.230469 13.085938 C 1.054688 13.085938 0.910156 12.941406 0.910156 12.765625 L 0.910156 3.539062 L 7.789062 9.421875 C 7.789062 9.425781 7.796875 9.429688 7.800781 9.429688 C 7.804688 9.433594 7.8125 9.4375 7.8125 9.441406 C 7.824219 9.449219 7.832031 9.453125 7.839844 9.457031 C 7.84375 9.460938 7.847656 9.460938 7.851562 9.464844 C 7.863281 9.472656 7.878906 9.476562 7.890625 9.484375 C 7.894531 9.484375 7.898438 9.488281 7.902344 9.488281 C 7.914062 9.492188 7.921875 9.5 7.9375 9.503906 C 7.9375 9.503906 7.945312 9.503906 7.949219 9.503906 C 7.960938 9.507812 7.96875 9.511719 7.980469 9.511719 C 7.984375 9.511719 7.988281 9.515625 7.992188 9.515625 C 8.003906 9.519531 8.015625 9.519531 8.027344 9.523438 C 8.03125 9.523438 8.035156 9.523438 8.039062 9.523438 C 8.050781 9.523438 8.066406 9.527344 8.082031 9.527344 C 8.09375 9.527344 8.113281 9.527344 8.125 9.523438 C 8.128906 9.523438 8.132812 9.523438 8.136719 9.523438 C 8.144531 9.523438 8.160156 9.519531 8.167969 9.515625 C 8.171875 9.515625 8.179688 9.511719 8.183594 9.511719 C 8.191406 9.507812 8.203125 9.503906 8.210938 9.503906 C 8.214844 9.503906 8.222656 9.503906 8.226562 9.503906 C 8.234375 9.5 8.246094 9.496094 8.261719 9.488281 C 8.261719 9.488281 8.265625 9.484375 8.269531 9.484375 C 8.285156 9.476562 8.296875 9.472656 8.3125 9.464844 C 8.3125 9.460938 8.316406 9.460938 8.320312 9.457031 C 8.332031 9.453125 8.335938 9.449219 8.347656 9.441406 C 8.351562 9.4375 8.359375 9.433594 8.359375 9.429688 C 8.363281 9.429688 8.371094 9.425781 8.375 9.421875 L 15.089844 3.6875 Z M 15.089844 12.765625 "/>
</g>
</svg>
