<svg id="SvgjsSvg1042" width="288" height="288" xmlns="http://www.w3.org/2000/svg" version="1.1" xmlns:xlink="http://www.w3.org/1999/xlink" xmlns:svgjs="http://svgjs.com/svgjs"><defs id="SvgjsDefs1043"></defs><g id="SvgjsG1044"><svg xmlns="http://www.w3.org/2000/svg" width="288" height="288" enable-background="new 0 0 392.186 392.186" viewBox="0 0 392.186 392.186"><path d="M368.62,17.951H23.568C10.572,17.951,0,28.524,0,41.52v309.146c0,12.996,10.572,23.568,23.568,23.568h345.053
				c12.994,0,23.564-10.572,23.564-23.568V41.521C392.188,28.525,381.614,17.951,368.62,17.951z M297.56,57.528
				c0-4.806,3.896-8.702,8.701-8.702h8.703c4.808,0,8.701,3.896,8.701,8.702v9.863c0,4.806-3.896,8.702-8.701,8.702h-8.703
				c-4.805,0-8.701-3.896-8.701-8.702V57.528z M257.093,57.528c0-4.806,3.898-8.702,8.703-8.702h8.701
				c4.807,0,8.703,3.896,8.703,8.702v9.863c0,4.806-3.896,8.702-8.703,8.702h-8.701c-4.805,0-8.703-3.896-8.703-8.702V57.528z
				 M363.903,345.951H28.282V102.235h335.621V345.951L363.903,345.951z M364.132,67.391c0,4.806-3.896,8.702-8.701,8.702h-8.703
				c-4.807,0-8.702-3.896-8.702-8.702v-9.863c0-4.806,3.896-8.702,8.702-8.702h8.703c4.806,0,8.701,3.896,8.701,8.702V67.391z" fill="#4a61dd" class="color000 svgShape"></path><path d="M142.915,245.672l-9.943,57.978c-0.488,2.854,0.682,5.752,3.029,7.453c2.348,1.7,5.461,1.929,8.029,0.577l52.063-27.363
				l52.063,27.363c1.115,0.591,2.337,0.878,3.546,0.878c1.579,0,3.157-0.49,4.482-1.455c2.35-1.701,3.52-4.599,3.029-7.453
				l-9.942-57.978l42.118-41.05c2.076-2.03,2.824-5.056,1.931-7.82c-0.894-2.755-3.278-4.771-6.151-5.19l-58.211-8.451
				l-26.029-52.745c-1.28-2.603-3.932-4.249-6.834-4.249c-2.902,0-5.553,1.647-6.834,4.249l-26.029,52.745l-58.211,8.451
				c-2.873,0.42-5.258,2.436-6.152,5.19c-0.893,2.765-0.146,5.79,1.93,7.82L142.915,245.672z" fill="#4a61dd" class="color000 svgShape"></path></svg></g></svg>