<?xml version="1.0" encoding="UTF-8"?>
<svg xmlns="http://www.w3.org/2000/svg" xmlns:xlink="http://www.w3.org/1999/xlink" width="64px" height="64px" viewBox="0 0 64 64" version="1.1">
<g id="surface1">
<path style=" stroke:none;fill-rule:nonzero;fill:rgb(29.019608%,38.039216%,86.666667%);fill-opacity:1;" d="M 36.199219 41.035156 C 36.503906 39.496094 37.199219 38.175781 38.253906 37.152344 C 38.734375 36.691406 39.28125 36.296875 39.882812 35.976562 L 24.089844 35.976562 C 26.027344 37.011719 27.335938 38.769531 27.796875 41.035156 Z M 36.199219 41.035156 "/>
<path style=" stroke:none;fill-rule:nonzero;fill:rgb(29.019608%,38.039216%,86.666667%);fill-opacity:1;" d="M 11.136719 35.976562 C 9.742188 35.976562 8.605469 37.109375 8.605469 38.507812 C 8.605469 39.902344 9.742188 41.039062 11.136719 41.039062 L 11.785156 41.039062 C 12.089844 39.5 12.785156 38.175781 13.839844 37.15625 C 14.550781 36.464844 15.410156 35.929688 16.386719 35.558594 L 16.386719 9.871094 L 47.613281 9.871094 L 47.613281 35.570312 C 50.042969 36.507812 51.683594 38.4375 52.210938 41.035156 L 52.863281 41.035156 C 54.261719 41.035156 55.394531 39.902344 55.394531 38.507812 C 55.394531 37.109375 54.261719 35.976562 52.863281 35.976562 L 52.226562 35.976562 L 52.226562 9.871094 L 52.863281 9.871094 C 54.261719 9.871094 55.394531 8.738281 55.394531 7.339844 C 55.394531 5.945312 54.261719 4.8125 52.863281 4.8125 L 34.308594 4.8125 L 34.308594 2.308594 C 34.308594 1.03125 33.273438 0 32 0 C 30.726562 0 29.695312 1.03125 29.695312 2.308594 L 29.695312 4.8125 L 11.136719 4.8125 C 9.742188 4.8125 8.605469 5.945312 8.605469 7.34375 C 8.605469 8.738281 9.742188 9.871094 11.136719 9.871094 L 11.773438 9.871094 L 11.773438 35.976562 Z M 11.136719 35.976562 "/>
<path style=" stroke:none;fill-rule:nonzero;fill:rgb(29.019608%,38.039216%,86.666667%);fill-opacity:1;" d="M 24.644531 29.679688 L 24.644531 21.449219 C 24.644531 20.492188 23.871094 19.71875 22.914062 19.71875 C 21.960938 19.71875 21.183594 20.492188 21.183594 21.449219 L 21.183594 29.679688 C 21.183594 30.636719 21.960938 31.410156 22.914062 31.410156 C 23.871094 31.410156 24.644531 30.636719 24.644531 29.679688 Z M 30.703125 29.679688 L 30.703125 15.390625 C 30.703125 14.433594 29.929688 13.660156 28.972656 13.660156 C 28.015625 13.660156 27.242188 14.433594 27.242188 15.390625 L 27.242188 29.679688 C 27.242188 30.636719 28.015625 31.410156 28.972656 31.410156 C 29.929688 31.410156 30.703125 30.636719 30.703125 29.679688 Z M 36.757812 29.679688 L 36.757812 19.023438 C 36.757812 18.070312 35.984375 17.292969 35.027344 17.292969 C 34.074219 17.292969 33.296875 18.070312 33.296875 19.023438 L 33.296875 29.679688 C 33.296875 30.636719 34.074219 31.410156 35.027344 31.410156 C 35.984375 31.410156 36.757812 30.636719 36.757812 29.679688 Z M 42.816406 29.679688 L 42.816406 17.207031 C 42.816406 16.253906 42.039062 15.476562 41.085938 15.476562 C 40.128906 15.476562 39.355469 16.253906 39.355469 17.207031 L 39.355469 29.679688 C 39.355469 30.636719 40.128906 31.410156 41.085938 31.410156 C 42.039062 31.410156 42.816406 30.636719 42.816406 29.679688 Z M 19.785156 51.601562 C 19.785156 51.601562 19.785156 51.601562 19.789062 51.601562 C 19.789062 51.601562 19.789062 51.601562 19.792969 51.601562 C 19.796875 51.601562 19.796875 51.601562 19.796875 51.601562 C 19.800781 51.601562 19.804688 51.601562 19.808594 51.601562 C 23.53125 51.65625 25.796875 48.398438 25.855469 43.023438 C 25.894531 39.292969 23.582031 37.160156 19.816406 37.0625 L 19.816406 37.058594 C 19.808594 37.058594 19.804688 37.0625 19.796875 37.0625 L 19.796875 37.058594 C 19.796875 37.058594 19.792969 37.058594 19.792969 37.0625 C 19.789062 37.058594 19.785156 37.058594 19.785156 37.058594 L 19.785156 37.0625 C 19.777344 37.0625 19.773438 37.058594 19.769531 37.058594 L 19.769531 37.0625 C 16 37.160156 13.6875 39.292969 13.726562 43.023438 C 13.785156 48.398438 16.046875 51.65625 19.773438 51.601562 C 19.777344 51.601562 19.78125 51.601562 19.785156 51.601562 Z M 44.199219 51.601562 C 44.199219 51.601562 44.199219 51.601562 44.203125 51.601562 C 44.203125 51.601562 44.203125 51.601562 44.207031 51.601562 C 44.210938 51.601562 44.210938 51.601562 44.210938 51.601562 C 44.214844 51.601562 44.222656 51.601562 44.222656 51.601562 C 47.949219 51.65625 50.210938 48.398438 50.269531 43.023438 C 50.308594 39.292969 47.996094 37.160156 44.230469 37.0625 L 44.230469 37.058594 C 44.222656 37.058594 44.21875 37.0625 44.214844 37.0625 L 44.214844 37.058594 C 44.210938 37.058594 44.207031 37.058594 44.207031 37.0625 C 44.203125 37.058594 44.199219 37.058594 44.199219 37.058594 L 44.199219 37.0625 C 44.191406 37.0625 44.1875 37.058594 44.183594 37.058594 L 44.183594 37.0625 C 40.414062 37.160156 38.105469 39.292969 38.140625 43.023438 C 38.199219 48.398438 40.464844 51.65625 44.1875 51.601562 C 44.191406 51.601562 44.195312 51.601562 44.199219 51.601562 Z M 54.933594 55.679688 L 48.875 53.265625 L 47.457031 52.070312 C 47.082031 51.753906 46.527344 51.777344 46.179688 52.121094 L 44.207031 54.082031 L 42.230469 52.121094 C 41.882812 51.777344 41.332031 51.753906 40.957031 52.070312 L 39.535156 53.265625 L 33.480469 55.679688 C 32.75 55.972656 32.292969 57.117188 32 58.476562 C 31.703125 57.117188 31.246094 55.96875 30.519531 55.679688 L 24.460938 53.265625 L 23.042969 52.070312 C 22.667969 51.753906 22.113281 51.777344 21.765625 52.121094 L 19.792969 54.082031 L 17.816406 52.121094 C 17.46875 51.777344 16.917969 51.753906 16.542969 52.070312 L 15.121094 53.265625 L 9.066406 55.679688 C 7.113281 56.457031 7.117188 63.367188 6.949219 64 L 57.050781 64 C 56.882812 63.367188 56.882812 56.457031 54.933594 55.679688 Z M 54.933594 55.679688 "/>
</g>
</svg>
