<?xml version="1.0" encoding="UTF-8"?>
<svg xmlns="http://www.w3.org/2000/svg" xmlns:xlink="http://www.w3.org/1999/xlink" width="64px" height="64px" viewBox="0 0 64 64" version="1.1">
<g id="surface1">
<path style=" stroke:none;fill-rule:nonzero;fill:rgb(29.019608%,38.039216%,86.666667%);fill-opacity:1;" d="M 32 0.777344 C 14.320312 0.777344 0 15.105469 0 32.777344 C 0 46.921875 9.167969 58.910156 21.878906 63.136719 C 23.480469 63.441406 24.066406 62.449219 24.066406 61.601562 C 24.066406 60.839844 24.039062 58.828125 24.027344 56.160156 C 15.125 58.089844 13.246094 51.867188 13.246094 51.867188 C 11.792969 48.171875 9.6875 47.1875 9.6875 47.1875 C 6.789062 45.203125 9.910156 45.242188 9.910156 45.242188 C 13.125 45.464844 14.8125 48.539062 14.8125 48.539062 C 17.667969 53.433594 22.304688 52.019531 24.132812 51.199219 C 24.421875 49.128906 25.246094 47.71875 26.160156 46.921875 C 19.054688 46.121094 11.585938 43.367188 11.585938 31.105469 C 11.585938 27.613281 12.824219 24.761719 14.878906 22.519531 C 14.515625 21.710938 13.4375 18.457031 15.15625 14.050781 C 15.15625 14.050781 17.835938 13.191406 23.957031 17.332031 C 26.515625 16.617188 29.238281 16.265625 31.957031 16.25 C 34.675781 16.265625 37.398438 16.617188 39.957031 17.332031 C 46.039062 13.191406 48.71875 14.050781 48.71875 14.050781 C 50.4375 18.457031 49.355469 21.710938 49.039062 22.519531 C 51.078125 24.761719 52.316406 27.613281 52.316406 31.105469 C 52.316406 43.398438 44.835938 46.105469 37.71875 46.894531 C 38.835938 47.851562 39.878906 49.816406 39.878906 52.8125 C 39.878906 57.097656 39.835938 60.535156 39.835938 61.574219 C 39.835938 62.414062 40.398438 63.414062 42.039062 63.097656 C 54.839844 58.898438 64 46.898438 64 32.777344 C 64 15.105469 49.671875 0.777344 32 0.777344 "/>
</g>
</svg>
