<?xml version="1.0" encoding="UTF-8"?>
<svg xmlns="http://www.w3.org/2000/svg" xmlns:xlink="http://www.w3.org/1999/xlink" width="64px" height="64px" viewBox="0 0 64 64" version="1.1">
<g id="surface1">
<path style=" stroke:none;fill-rule:nonzero;fill:rgb(29.019608%,38.039216%,86.666667%);fill-opacity:1;" d="M 54.523438 54.539062 L 45.046875 54.539062 L 45.046875 39.6875 C 45.046875 36.148438 44.976562 31.589844 40.109375 31.589844 C 35.167969 31.589844 34.414062 35.441406 34.414062 39.425781 L 34.414062 54.539062 L 24.9375 54.539062 L 24.9375 24 L 34.039062 24 L 34.039062 28.164062 L 34.164062 28.164062 C 35.433594 25.761719 38.527344 23.230469 43.148438 23.230469 C 52.753906 23.230469 54.527344 29.550781 54.527344 37.777344 L 54.527344 54.539062 Z M 14.230469 19.820312 C 11.179688 19.820312 8.730469 17.351562 8.730469 14.316406 C 8.730469 11.28125 11.183594 8.8125 14.230469 8.8125 C 17.273438 8.8125 19.734375 11.28125 19.734375 14.316406 C 19.734375 17.351562 17.269531 19.820312 14.230469 19.820312 Z M 18.984375 54.539062 L 9.480469 54.539062 L 9.480469 24 L 18.984375 24 Z M 59.265625 0 L 4.722656 0 C 2.113281 0 0 2.0625 0 4.609375 L 0 59.390625 C 0 61.9375 2.113281 64 4.722656 64 L 59.257812 64 C 61.867188 64 64 61.9375 64 59.390625 L 64 4.609375 C 64 2.0625 61.867188 0 59.257812 0 Z M 59.265625 0 "/>
</g>
</svg>
