<svg id="SvgjsSvg1001" width="288" height="288" xmlns="http://www.w3.org/2000/svg" version="1.1" xmlns:xlink="http://www.w3.org/1999/xlink" xmlns:svgjs="http://svgjs.com/svgjs"><defs id="SvgjsDefs1002"></defs><g id="SvgjsG1008" transform="matrix(1,0,0,1,0,0)"><svg xmlns="http://www.w3.org/2000/svg" width="288" height="288" viewBox="0 0 64 100"><path fill="#4a61dd" d="M 32 0.0625 C 14.324219 0.0625 0 14.347656 0 31.972656 C 0 39.574219 2.679688 46.542969 7.132812 52.019531 C 8.566406 53.785156 10.96875 56.558594 12.21875 58.457031 C 19.429688 69.378906 28.675781 85.234375 31.367188 98.25 C 31.832031 100.472656 32.386719 100.511719 32.988281 98.320312 C 34.910156 91.304688 39.894531 75.972656 50.1875 59.929688 C 51.417969 58.015625 53.90625 55.335938 55.449219 53.671875 C 57.6875 51.253906 59.550781 48.488281 60.964844 45.46875 C 62.894531 41.355469 64 36.800781 64 31.976562 C 64 14.347656 49.671875 0.0625 32 0.0625 Z M 32 49.214844 C 22.132812 49.214844 14.136719 41.238281 14.136719 31.402344 C 14.136719 21.566406 22.132812 13.59375 32 13.59375 C 41.863281 13.59375 49.859375 21.566406 49.859375 31.402344 C 49.859375 41.238281 41.863281 49.214844 32 49.214844 Z M 32 49.214844 " class="color010002 svgShape"></path><path fill="#4a61dd" d="M 39.425781 30.773438 C 39.425781 34.863281 36.101562 38.179688 32 38.179688 C 27.894531 38.179688 24.570312 34.863281 24.570312 30.773438 C 24.570312 26.679688 27.894531 23.363281 32 23.363281 C 36.101562 23.363281 39.425781 26.679688 39.425781 30.773438 Z M 39.425781 30.773438 " class="color010002 svgShape"></path></svg></g></svg>