<?xml version="1.0" encoding="UTF-8"?>
<svg xmlns="http://www.w3.org/2000/svg" xmlns:xlink="http://www.w3.org/1999/xlink" width="16px" height="16px" viewBox="0 0 16 16" version="1.1">
<g id="surface1">
<path style=" stroke:none;fill-rule:nonzero;fill:rgb(29.019608%,38.039216%,86.666667%);fill-opacity:1;" d="M 15.828125 12.132812 C 15.234375 11.007812 13.164062 9.789062 13.074219 9.734375 C 12.808594 9.582031 12.53125 9.503906 12.269531 9.503906 C 11.886719 9.503906 11.570312 9.679688 11.378906 10 C 11.074219 10.363281 10.699219 10.785156 10.609375 10.851562 C 9.90625 11.328125 9.351562 11.273438 8.742188 10.664062 L 5.335938 7.257812 C 4.730469 6.652344 4.671875 6.09375 5.148438 5.390625 C 5.214844 5.300781 5.636719 4.925781 6 4.621094 C 6.230469 4.484375 6.386719 4.28125 6.457031 4.03125 C 6.550781 3.695312 6.480469 3.304688 6.265625 2.921875 C 6.214844 2.835938 4.992188 0.765625 3.867188 0.171875 C 3.65625 0.0585938 3.417969 0 3.183594 0 C 2.792969 0 2.421875 0.152344 2.148438 0.429688 L 1.394531 1.183594 C 0.203125 2.371094 -0.226562 3.722656 0.113281 5.191406 C 0.394531 6.417969 1.222656 7.722656 2.570312 9.070312 L 6.929688 13.429688 C 8.636719 15.136719 10.261719 16 11.761719 16 C 12.863281 16 13.894531 15.53125 14.816406 14.605469 L 15.570312 13.855469 C 16.027344 13.398438 16.132812 12.707031 15.828125 12.132812 Z M 15.828125 12.132812 "/>
</g>
</svg>
