<?xml version="1.0" encoding="UTF-8"?>
<svg xmlns="http://www.w3.org/2000/svg" xmlns:xlink="http://www.w3.org/1999/xlink" width="64px" height="64px" viewBox="0 0 64 64" version="1.1">
<g id="surface1">
<path style=" stroke:none;fill-rule:nonzero;fill:rgb(29.019608%,38.039216%,86.666667%);fill-opacity:1;" d="M 45.046875 22.957031 C 44.976562 22.542969 44.582031 22.269531 44.167969 22.339844 L 41.441406 22.820312 C 41.113281 22.054688 40.695312 21.332031 40.199219 20.675781 L 41.980469 18.550781 C 42.109375 18.394531 42.171875 18.195312 42.15625 17.996094 C 42.136719 17.796875 42.039062 17.609375 41.886719 17.480469 L 39.5 15.476562 C 39.34375 15.347656 39.144531 15.285156 38.945312 15.304688 C 38.746094 15.320312 38.558594 15.417969 38.429688 15.570312 L 36.648438 17.695312 C 35.917969 17.320312 35.136719 17.035156 34.316406 16.84375 L 34.316406 14.074219 C 34.316406 13.65625 33.976562 13.316406 33.558594 13.316406 L 30.441406 13.316406 C 30.023438 13.316406 29.683594 13.65625 29.683594 14.074219 L 29.683594 16.84375 C 28.863281 17.035156 28.082031 17.320312 27.351562 17.695312 L 25.570312 15.570312 C 25.300781 15.25 24.820312 15.207031 24.5 15.476562 L 22.113281 17.480469 C 21.960938 17.609375 21.863281 17.796875 21.847656 17.996094 C 21.828125 18.195312 21.890625 18.394531 22.019531 18.550781 L 23.804688 20.675781 C 23.304688 21.332031 22.886719 22.054688 22.5625 22.820312 L 19.832031 22.339844 C 19.421875 22.269531 19.027344 22.542969 18.953125 22.957031 L 18.410156 26.023438 C 18.375 26.222656 18.421875 26.425781 18.539062 26.59375 C 18.652344 26.757812 18.828125 26.871094 19.027344 26.90625 L 21.757812 27.386719 C 21.800781 28.230469 21.949219 29.050781 22.1875 29.828125 L 19.789062 31.214844 C 19.613281 31.316406 19.484375 31.480469 19.433594 31.675781 C 19.382812 31.871094 19.410156 32.078125 19.507812 32.25 L 21.066406 34.949219 C 21.167969 35.125 21.332031 35.25 21.527344 35.304688 C 21.59375 35.320312 21.660156 35.328125 21.726562 35.328125 C 21.859375 35.328125 21.988281 35.296875 22.105469 35.226562 L 24.507812 33.839844 C 25.070312 34.445312 25.710938 34.980469 26.40625 35.4375 L 25.457031 38.039062 C 25.386719 38.230469 25.398438 38.4375 25.484375 38.621094 C 25.566406 38.804688 25.722656 38.945312 25.910156 39.015625 L 28.839844 40.078125 C 28.921875 40.109375 29.011719 40.125 29.097656 40.125 C 29.207031 40.125 29.316406 40.101562 29.417969 40.054688 C 29.601562 39.96875 29.742188 39.816406 29.8125 39.625 L 30.761719 37.019531 C 31.167969 37.070312 31.582031 37.09375 32 37.09375 C 32.417969 37.09375 32.832031 37.070312 33.238281 37.019531 L 34.1875 39.625 C 34.257812 39.816406 34.398438 39.96875 34.582031 40.054688 C 34.683594 40.101562 34.792969 40.125 34.902344 40.125 C 34.988281 40.125 35.078125 40.109375 35.160156 40.078125 L 38.089844 39.015625 C 38.277344 38.945312 38.433594 38.804688 38.519531 38.621094 C 38.601562 38.4375 38.613281 38.230469 38.542969 38.039062 L 37.59375 35.4375 C 38.292969 34.980469 38.929688 34.445312 39.492188 33.839844 L 41.894531 35.226562 C 42.011719 35.296875 42.144531 35.328125 42.273438 35.328125 C 42.339844 35.328125 42.40625 35.320312 42.472656 35.304688 C 42.667969 35.25 42.832031 35.125 42.933594 34.949219 L 44.488281 32.25 C 44.589844 32.078125 44.617188 31.871094 44.566406 31.675781 C 44.515625 31.480469 44.386719 31.316406 44.210938 31.214844 L 41.8125 29.828125 C 42.050781 29.050781 42.199219 28.230469 42.242188 27.386719 L 44.972656 26.90625 C 45.171875 26.871094 45.347656 26.757812 45.460938 26.59375 C 45.578125 26.425781 45.625 26.222656 45.589844 26.023438 Z M 32 30.898438 C 29.691406 30.898438 27.820312 29.027344 27.820312 26.71875 C 27.820312 24.414062 29.691406 22.542969 32 22.542969 C 34.308594 22.542969 36.179688 24.414062 36.179688 26.71875 C 36.179688 29.027344 34.308594 30.898438 32 30.898438 Z M 32 30.898438 "/>
<path style=" stroke:none;fill-rule:nonzero;fill:rgb(29.019608%,38.039216%,86.666667%);fill-opacity:1;" d="M 58.667969 3.996094 L 5.332031 3.996094 C 2.390625 3.996094 0 6.386719 0 9.324219 L 0 44.089844 C 0 47.03125 2.390625 49.421875 5.332031 49.421875 L 22.515625 49.421875 L 19.253906 56.613281 C 18.917969 57.355469 18.980469 58.21875 19.421875 58.90625 C 19.863281 59.589844 20.625 60.003906 21.441406 60.003906 L 42.558594 60.003906 C 42.558594 60.003906 42.5625 60.003906 42.5625 60.003906 C 43.886719 60.003906 44.964844 58.929688 44.964844 57.605469 C 44.964844 57.207031 44.867188 56.828125 44.691406 56.496094 L 41.484375 49.421875 L 58.667969 49.421875 C 61.609375 49.421875 64 47.03125 64 44.089844 L 64 9.324219 C 64 6.386719 61.609375 3.996094 58.667969 3.996094 Z M 59.199219 44.089844 C 59.199219 44.382812 58.960938 44.621094 58.667969 44.621094 L 5.332031 44.621094 C 5.039062 44.621094 4.800781 44.382812 4.800781 44.089844 L 4.800781 9.324219 C 4.800781 9.035156 5.039062 8.796875 5.332031 8.796875 L 58.667969 8.796875 C 58.960938 8.796875 59.199219 9.035156 59.199219 9.324219 Z M 59.199219 44.089844 "/>
</g>
</svg>
