<svg id="SvgjsSvg1036" width="288" height="288" xmlns="http://www.w3.org/2000/svg" version="1.1" xmlns:xlink="http://www.w3.org/1999/xlink" xmlns:svgjs="http://svgjs.com/svgjs"><defs id="SvgjsDefs1037"></defs><g id="SvgjsG1038"><svg xmlns="http://www.w3.org/2000/svg" width="288" height="288" enable-background="new 0 0 419.931 419.931" viewBox="0 0 419.931 419.931"><path d="M282.895,352.367c-2.176-1.324-4.072-3.099-5.579-5.25c-0.696-0.992-1.284-2.041-1.771-3.125H28.282V100.276h335.624
				v159.138c7.165,0.647,13.177,5.353,15.701,11.797c2.235-1.225,4.726-1.982,7.344-2.213c1.771-0.154,3.53-0.044,5.236,0.293
				V39.561c0-12.996-10.571-23.569-23.566-23.569H23.568C10.573,15.992,0,26.565,0,39.561v309.146
				c0,12.996,10.573,23.568,23.568,23.568h257.179c-2.007-4.064-2.483-8.652-1.302-13.066
				C280.126,356.67,281.304,354.354,282.895,352.367z M338.025,55.569c0-4.806,3.896-8.703,8.702-8.703h8.702
				c4.807,0,8.702,3.896,8.702,8.703v9.863c0,4.806-3.896,8.702-8.702,8.702h-8.702c-4.807,0-8.702-3.896-8.702-8.702V55.569z
				 M297.56,55.569c0-4.806,3.896-8.703,8.702-8.703h8.703c4.807,0,8.702,3.896,8.702,8.703v9.863c0,4.806-3.896,8.702-8.702,8.702
				h-8.703c-4.806,0-8.702-3.896-8.702-8.702V55.569z M257.094,55.569c0-4.806,3.897-8.703,8.702-8.703h8.702
				c4.807,0,8.703,3.896,8.703,8.703v9.863c0,4.806-3.896,8.702-8.703,8.702h-8.702c-4.805,0-8.702-3.896-8.702-8.702V55.569z" fill="#4a61dd" class="color000 svgShape"></path><path d="M419.875 335.77l-2.615-14.83c-.353-1.997-2.256-3.331-4.255-2.979l-13.188 2.324c-1.583-3.715-3.605-7.195-6.005-10.38l8.614-10.268c.626-.744.931-1.709.847-2.68-.086-.971-.554-1.867-1.3-2.494l-11.534-9.68c-.746-.626-1.713-.93-2.683-.845-.971.085-1.867.552-2.493 1.298l-8.606 10.26c-3.533-1.8-7.312-3.188-11.271-4.104v-13.392c0-2.028-1.645-3.674-3.673-3.674h-15.06c-2.027 0-3.673 1.646-3.673 3.674v13.392c-3.961.915-7.736 2.304-11.271 4.104l-8.608-10.259c-1.304-1.554-3.62-1.756-5.175-.453l-11.535 9.679c-.746.627-1.213 1.523-1.299 2.494-.084.971.22 1.937.846 2.683l8.615 10.266c-2.396 3.184-4.422 6.666-6.005 10.38l-13.188-2.325c-1.994-.351-3.901.982-4.255 2.979l-2.614 14.83c-.169.959.05 1.945.607 2.744.561.799 1.41 1.342 2.37 1.511l13.198 2.326c.215 4.089.927 8.045 2.073 11.812l-11.6 6.695c-.844.485-1.459 1.289-1.712 2.229-.252.941-.119 1.943.367 2.787l7.529 13.041c.485.844 1.289 1.459 2.229 1.711.313.084.632.125.951.125.639 0 1.272-.166 1.836-.492l11.609-6.703c2.73 2.925 5.812 5.517 9.18 7.709l-4.584 12.593c-.332.916-.289 1.926.123 2.809s1.157 1.566 2.072 1.898l14.148 5.149c.406.148.832.224 1.257.224.53 0 1.063-.115 1.554-.345.883-.411 1.564-1.157 1.897-2.073l4.583-12.593c1.965.238 3.965.361 5.994.361s4.029-.125 5.994-.361l4.584 12.593c.332.916 1.016 1.662 1.897 2.073.49.229 1.021.345 1.554.345.424 0 .85-.074 1.256-.224l14.15-5.149c.913-.332 1.659-1.017 2.07-1.898.412-.883.456-1.893.123-2.809l-4.584-12.591c3.365-2.192 6.447-4.786 9.18-7.709l11.609 6.703c.563.324 1.197.492 1.836.492.318 0 .64-.043.951-.125.941-.252 1.743-.869 2.229-1.711l7.529-13.043c.486-.842.619-1.846.367-2.787-.253-.938-.868-1.742-1.712-2.229l-11.598-6.693c1.146-3.768 1.856-7.724 2.071-11.812l13.198-2.327c.96-.169 1.812-.712 2.37-1.511C419.825 337.715 420.044 336.729 419.875 335.77zM354.184 359.336c-11.155 0-20.2-9.045-20.2-20.201s9.046-20.2 20.2-20.2c11.156 0 20.201 9.044 20.201 20.2S365.34 359.336 354.184 359.336zM164.695 235.373c0-4.752-2.785-9.117-7.096-11.119l-39.455-18.332 39.456-18.334c4.31-2.004 7.095-6.368 7.095-11.118v-.319c0-4.21-2.119-8.075-5.665-10.334-1.962-1.253-4.247-1.916-6.606-1.916-1.778 0-3.563.391-5.16 1.133l-63.078 29.333c-4.309 2.004-7.092 6.368-7.092 11.117v.877c0 4.743 2.782 9.104 7.093 11.118l63.084 29.336c1.631.755 3.368 1.138 5.162 1.138 2.338 0 4.616-.664 6.597-1.924 3.548-2.268 5.666-6.13 5.666-10.335L164.695 235.373 164.695 235.373zM226.932 134.012c-2.301-3.15-6.002-5.03-9.901-5.03h-.314c-5.354 0-10.048 3.425-11.679 8.516L163.478 266.27c-1.183 3.718-.517 7.813 1.781 10.962 2.301 3.148 6.002 5.029 9.901 5.029h.315c5.352 0 10.043-3.426 11.672-8.516l41.555-128.762C229.896 141.268 229.234 137.167 226.932 134.012zM308.001 194.366l-63.079-29.333c-1.592-.74-3.374-1.131-5.152-1.131-2.358 0-4.644.661-6.605 1.912-3.552 2.263-5.671 6.127-5.671 10.337v.319c0 4.746 2.783 9.111 7.097 11.123l39.454 18.33-39.455 18.331c-4.311 2.002-7.096 6.367-7.096 11.119v.321c0 4.205 2.119 8.066 5.669 10.336 1.974 1.258 4.254 1.923 6.595 1.923 1.792 0 3.527-.383 5.169-1.141l63.082-29.336c4.307-2.009 7.088-6.371 7.088-11.114v-.877C315.094 200.735 312.311 196.371 308.001 194.366z" fill="#4a61dd" class="color000 svgShape"></path></svg></g></svg>